<?xml version="1.0" encoding="UTF-8"?>
<svg width="18px" height="18px" viewBox="0 0 18 18" version="1.1" xmlns="http://www.w3.org/2000/svg" xmlns:xlink="http://www.w3.org/1999/xlink">
    <!-- Generator: Sketch 60 (88103) - https://sketch.com -->
    <title>编组 15</title>
    <desc>Created with Sketch.</desc>
    <defs>
        <linearGradient x1="0%" y1="100%" x2="100%" y2="0%" id="linearGradient-1">
            <stop stop-color="#FF6300" offset="0%"></stop>
            <stop stop-color="#FCC000" offset="100%"></stop>
        </linearGradient>
    </defs>
    <g id="页面-1" stroke="none" stroke-width="1" fill="none" fill-rule="evenodd">
        <g id="图标" transform="translate(-637.000000, -354.000000)">
            <g id="编组-22" transform="translate(637.000000, 354.000000)">
                <g id="编组-15">
                    <rect id="矩形" fill="url(#linearGradient-1)" x="0" y="0" width="18" height="18" rx="2"></rect>
                    <g id="file-sync" transform="translate(1.000000, 1.000000)" fill-rule="nonzero">
                        <rect id="矩形" fill="#000000" opacity="0" x="0" y="0" width="16" height="16"></rect>
                        <path d="M4.68533577,5.01529609 C4.61658577,5.01529609 4.56033577,5.07154609 4.56033577,5.14029609 L4.56033577,5.89029609 C4.56033577,5.95904609 4.61658577,6.01529609 4.68533577,6.01529609 L10.6853358,6.01529609 C10.7540858,6.01529609 10.8103358,5.95904609 10.8103358,5.89029609 L10.8103358,5.14029609 C10.8103358,5.07154609 10.7540858,5.01529609 10.6853358,5.01529609 L4.68533577,5.01529609 Z M7.68533577,8.14029609 L7.68533577,7.39029609 C7.68533577,7.32154609 7.62908577,7.26529609 7.56033577,7.26529609 L4.68533577,7.26529609 C4.61658577,7.26529609 4.56033577,7.32154609 4.56033577,7.39029609 L4.56033577,8.14029609 C4.56033577,8.20904609 4.61658577,8.26529609 4.68533577,8.26529609 L7.56033577,8.26529609 C7.62908577,8.26529609 7.68533577,8.20904609 7.68533577,8.14029609 Z M12.9763112,14.2983112 L12.9763112,13.4508112 C12.9763112,13.3731237 12.8503112,13.3095612 12.6963112,13.3095612 L6.25631124,13.3095612 C6.10231124,13.3095612 5.97631124,13.3731237 5.97631124,13.4508112 L5.97631124,14.2983112 C5.97631124,14.3759987 6.10231124,14.4395612 6.25631124,14.4395612 L12.6963112,14.4395612 C12.8503112,14.4395612 12.9763112,14.3759987 12.9763112,14.2983112 Z M12.1351771,14.4421961 L12.9826771,14.4421961 C13.0603646,14.4421961 13.1239271,14.3161961 13.1239271,14.1621961 L13.1239271,7.7221961 C13.1239271,7.5681961 13.0603646,7.4421961 12.9826771,7.4421961 L12.1351771,7.4421961 C12.0574896,7.4421961 11.9939271,7.5681961 11.9939271,7.7221961 L11.9939271,14.1621961 C11.9939271,14.3161961 12.0574896,14.4421961 12.1351771,14.4421961 Z M6.875,13.3125 L3.25,13.3125 L3.25,2.3125 L12,2.3125 L12,7.6875 C12,7.75625 12.05625,7.8125 12.125,7.8125 L13,7.8125 C13.06875,7.8125 13.125,7.75625 13.125,7.6875 L13.125,1.6875 C13.125,1.4109375 12.9015625,1.1875 12.625,1.1875 L2.625,1.1875 C2.3484375,1.1875 2.125,1.4109375 2.125,1.6875 L2.125,13.9375 C2.125,14.2140625 2.3484375,14.4375 2.625,14.4375 L6.875,14.4375 C6.94375,14.4375 7,14.38125 7,14.3125 L7,13.4375 C7,13.36875 6.94375,13.3125 6.875,13.3125 Z" id="形状" fill="#FFFFFF"></path>
                    </g>
                </g>
            </g>
        </g>
    </g>
</svg>