<?xml version="1.0" encoding="UTF-8"?>
<svg width="18px" height="18px" viewBox="0 0 18 18" version="1.1" xmlns="http://www.w3.org/2000/svg" xmlns:xlink="http://www.w3.org/1999/xlink">
    <!-- Generator: Sketch 60 (88103) - https://sketch.com -->
    <title>编组 18</title>
    <desc>Created with Sketch.</desc>
    <defs>
        <linearGradient x1="0%" y1="100%" x2="100%" y2="0%" id="linearGradient-1">
            <stop stop-color="#FF6300" offset="0%"></stop>
            <stop stop-color="#FCC000" offset="100%"></stop>
        </linearGradient>
    </defs>
    <g id="页面-1" stroke="none" stroke-width="1" fill="none" fill-rule="evenodd">
        <g id="图标" transform="translate(-945.000000, -354.000000)">
            <g id="编组-24" transform="translate(945.000000, 354.000000)">
                <g id="编组-18">
                    <rect id="矩形备份-8" fill="url(#linearGradient-1)" x="0" y="0" width="18" height="18" rx="2"></rect>
                    <g id="file-text备份" transform="translate(1.000000, 1.000000)" fill-rule="nonzero">
                        <rect id="矩形" fill="#000000" opacity="0" x="0" y="0" width="16" height="16"></rect>
                        <path d="M13.353125,4.509375 L9.990625,1.146875 C9.896875,1.053125 9.7703125,1 9.6375,1 L3,1 C2.7234375,1 2.5,1.2234375 2.5,1.5 L2.5,14.5 C2.5,14.7765625 2.7234375,15 3,15 L13,15 C13.2765625,15 13.5,14.7765625 13.5,14.5 L13.5,4.8640625 C13.5,4.73125 13.446875,4.603125 13.353125,4.509375 Z M12.346875,5.09375 L9.40625,5.09375 L9.40625,2.153125 L12.346875,5.09375 Z M12.375,13.875 L3.625,13.875 L3.625,2.125 L8.34375,2.125 L8.34375,5.5 C8.34375,5.8625 8.6375,6.15625 9,6.15625 L12.375,6.15625 L12.375,13.875 Z M5.27632368,6.70622722 L5.27632368,9.58122722 C5.27632368,9.64997722 5.33257368,9.70622722 5.40132368,9.70622722 L6.15132368,9.70622722 C6.22007368,9.70622722 6.27632368,9.64997722 6.27632368,9.58122722 L6.27632368,6.70622722 C6.27632368,6.63747722 6.22007368,6.58122722 6.15132368,6.58122722 L5.40132368,6.58122722 C5.33257368,6.58122722 5.27632368,6.63747722 5.27632368,6.70622722 Z M8.27173566,6.5829268 L5.39673566,6.5829268 C5.32798566,6.5829268 5.27173566,6.6391768 5.27173566,6.7079268 L5.27173566,7.4579268 C5.27173566,7.5266768 5.32798566,7.5829268 5.39673566,7.5829268 L8.27173566,7.5829268 C8.34048566,7.5829268 8.39673566,7.5266768 8.39673566,7.4579268 L8.39673566,6.7079268 C8.39673566,6.6391768 8.34048566,6.5829268 8.27173566,6.5829268 Z M5.84070724,6.62264663 L5.31037715,7.15297672 C5.26176356,7.20159031 5.26176356,7.28113982 5.31037715,7.32975341 L9.55301784,11.5723941 C9.60163143,11.6210077 9.68118095,11.6210077 9.72979454,11.5723941 L10.2601246,11.042064 C10.3087382,10.9934504 10.3087382,10.9139009 10.2601246,10.8652873 L6.01748394,6.62264663 C5.96887034,6.57403304 5.88932083,6.57403304 5.84070724,6.62264663 Z" id="形状" fill="#FFFFFF"></path>
                    </g>
                </g>
            </g>
        </g>
    </g>
</svg>