<?xml version="1.0" encoding="UTF-8"?>
<svg width="14px" height="13px" viewBox="0 0 14 13" version="1.1" xmlns="http://www.w3.org/2000/svg" xmlns:xlink="http://www.w3.org/1999/xlink">
    <!-- Generator: Sketch 60 (88103) - https://sketch.com -->
    <title>编辑</title>
    <desc>Created with Sketch.</desc>
    <g id="页面-1" stroke="none" stroke-width="1" fill="none" fill-rule="evenodd">
        <g id="图标" transform="translate(-863.000000, -208.000000)" fill-rule="nonzero">
            <g id="编辑" transform="translate(862.000000, 206.000000)">
                <rect id="矩形" fill="#000000" opacity="0" x="0" y="0" width="16" height="16"></rect>
                <path d="M13.0453333,3.67733333 L11.632,2.26933333 C11.495189,2.08479941 11.2790506,1.97598148 11.0493333,1.97598148 C10.8196161,1.97598148 10.6034777,2.08479941 10.4666667,2.26933333 L9.71733333,3.05333333 L3.38666667,9.54666667 C3.32207268,9.60645309 3.29114,9.69426198 3.304,9.78133333 L2.80533333,12.2853333 C2.76151904,12.4243111 2.80134102,12.5761004 2.90773836,12.6756701 C3.01413569,12.7752398 3.16822893,12.804922 3.304,12.752 L5.80533333,12.2853333 C5.88533333,12.2853333 5.968,12.2106667 6.05066667,12.128 L11.968,6.02666667 L13.136,4.85066667 C13.4016779,4.49140355 13.3630503,3.99151593 13.0453333,3.67733333 L13.0453333,3.67733333 Z M5.46666667,11.5786667 L3.71733333,11.896 L4.05333333,10.1706667 L4.63733333,9.54666667 L6.05066667,11.0373333 L5.46666667,11.5706667 L5.46666667,11.5786667 Z M6.632,10.328 L5.21866667,8.83733333 L9.968,3.984 L11.384,5.392 L6.632,10.328 Z M11.9653333,4.92533333 L10.4613333,3.44266667 L11.0453333,2.81866667 L12.5333333,4.30933333 L11.9653333,4.92533333 Z M14.32,13.4586591 L1.944,13.4586591 C1.68037608,13.4586591 1.46666667,13.6723761 1.46666667,13.936 C1.46666667,14.1996239 1.68037608,14.4133333 1.944,14.4133333 L14.3226667,14.4133333 C14.4492633,14.4133333 14.5706749,14.363043 14.6601923,14.2735256 C14.7497097,14.1840083 14.8000075,14.0625967 14.8000075,13.936 C14.8007145,13.8091857 14.7506536,13.6873585 14.6609809,13.5976858 C14.5713082,13.5080131 14.449481,13.4579522 14.3226667,13.4586591 L14.32,13.4586591 Z" id="形状" fill="#666666"></path>
            </g>
        </g>
    </g>
</svg>