<?xml version="1.0" encoding="UTF-8"?>
<svg width="14px" height="14px" viewBox="0 0 14 14" version="1.1" xmlns="http://www.w3.org/2000/svg" xmlns:xlink="http://www.w3.org/1999/xlink">
    <!-- Generator: Sketch 60 (88103) - https://sketch.com -->
    <title>导出 #8f8f8f &amp; 14px</title>
    <desc>Created with Sketch.</desc>
    <g id="页面-1" stroke="none" stroke-width="1" fill="none" fill-rule="evenodd">
        <g id="图标" transform="translate(-408.000000, -626.000000)" fill-rule="nonzero">
            <g id="编组-7" transform="translate(397.000000, 617.000000)">
                <g id="导出-#8f8f8f-&amp;-14px" transform="translate(10.000000, 8.000000)">
                    <rect id="矩形" fill="#000000" opacity="0" x="0" y="0" width="16" height="16"></rect>
                    <path d="M9.234375,13.8328125 L2.1359375,13.8328125 L2.1359375,2.1671875 L9.234375,2.1671875 L9.234375,5.084375 L10.3703125,5.084375 L10.3703125,2.3421875 C10.3703125,1.6015625 9.7859375,1 9.0640625,1 L2.30625,1 C1.584375,1 1,1.6015625 1,2.3421875 L1,13.659375 C1,14.4 1.584375,15.0015625 2.30625,15.0015625 L9.0640625,15.0015625 C9.7859375,15.0015625 10.3703125,14.4 10.3703125,13.659375 L10.3703125,10.9171875 L9.234375,10.9171875 L9.234375,13.8328125 Z M14.3078125,7.3390625 L11.846875,4.8125 L11.1546875,5.5234375 L12.996875,7.415625 L7.4484375,7.415625 L7.4484375,8.5828125 L13.0953125,8.5828125 L11.1546875,10.578125 L11.846875,11.2890625 L14.48125,8.5828125 L15,8.05 L14.3078125,7.3390625 Z" id="形状" fill="#FFFFFF"></path>
                </g>
            </g>
        </g>
    </g>
</svg>