<?xml version="1.0" encoding="UTF-8"?>
<svg width="16px" height="16px" viewBox="0 0 16 16" version="1.1" xmlns="http://www.w3.org/2000/svg" xmlns:xlink="http://www.w3.org/1999/xlink">
    <!-- Generator: Sketch 60 (88103) - https://sketch.com -->
    <title>stop备份 2</title>
    <desc>Created with Sketch.</desc>
    <g id="页面-1" stroke="none" stroke-width="1" fill="none" fill-rule="evenodd">
        <g id="图标" transform="translate(-404.000000, -380.000000)" fill-rule="nonzero">
            <g id="编组-2" transform="translate(39.000000, 213.000000)">
                <g id="stop备份-2" transform="translate(364.000000, 166.000000)">
                    <rect id="矩形" fill="#000000" opacity="0" x="0" y="0" width="18" height="18"></rect>
                    <path d="M9,1.125 C4.65117188,1.125 1.125,4.65117188 1.125,9 C1.125,13.3488281 4.65117188,16.875 9,16.875 C13.3488281,16.875 16.875,13.3488281 16.875,9 C16.875,4.65117188 13.3488281,1.125 9,1.125 Z M9,15.5390625 C5.38945313,15.5390625 2.4609375,12.6105469 2.4609375,9 C2.4609375,7.43554688 3.01113281,5.99765625 3.92871094,4.87265625 L13.1273437,14.0712891 C12.0023437,14.9888672 10.5644531,15.5390625 9,15.5390625 Z M14.0712891,13.1273437 L4.87265625,3.92871094 C5.99765625,3.01113281 7.43554688,2.4609375 9,2.4609375 C12.6105469,2.4609375 15.5390625,5.38945313 15.5390625,9 C15.5390625,10.5644531 14.9888672,12.0023437 14.0712891,13.1273437 Z" id="形状" fill="#B4B4B4"></path>
                </g>
            </g>
        </g>
    </g>
</svg>