<?xml version="1.0" encoding="UTF-8"?>
<svg width="16px" height="14px" viewBox="0 0 16 14" version="1.1" xmlns="http://www.w3.org/2000/svg" xmlns:xlink="http://www.w3.org/1999/xlink">
    <!-- Generator: Sketch 60 (88103) - https://sketch.com -->
    <title>编组 11</title>
    <desc>Created with Sketch.</desc>
    <g id="页面-1" stroke="none" stroke-width="1" fill="none" fill-rule="evenodd">
        <g id="图标" transform="translate(-223.000000, -162.000000)" fill-rule="nonzero">
            <g id="编组-11" transform="translate(222.000000, 160.000000)">
                <rect id="矩形" fill="#000000" opacity="0" x="0" y="0" width="18" height="18"></rect>
                <path d="M12.8144531,8.77148437 C12.6,8.70820312 12.4541016,8.66425781 12.5666016,8.38300781 C12.8091797,7.77304687 12.8337891,7.24570312 12.571875,6.87128906 C12.0796875,6.16640625 10.7296875,6.20507812 9.1828125,6.85195312 C9.1828125,6.85195312 8.69765625,7.06464844 8.82070313,6.6796875 C9.05800781,5.91503906 9.02285156,5.27519531 8.65195313,4.90429687 C7.81347656,4.0640625 5.5828125,4.9359375 3.66855469,6.8484375 C2.23769531,8.28105469 1.40625,9.79980469 1.40625,11.1128906 C1.40625,13.6248047 4.6265625,15.1523437 7.77832031,15.1523437 C11.9091797,15.1523437 14.6566406,12.7529297 14.6566406,10.8457031 C14.6566406,9.69433594 13.6863281,9.0421875 12.8144531,8.77148437 Z" id="路径" fill="#FC001D"></path>
                <path d="M7.78710938,14.2523437 C5.2734375,14.5001953 3.10253906,13.3646484 2.9390625,11.7123047 C2.77558594,10.0617187 4.6828125,8.521875 7.19648437,8.27402344 C9.71015625,8.02441406 11.8810547,9.16171875 12.0445312,10.8123047 C12.20625,12.4628906 10.3007812,14.0027344 7.78710938,14.2523437 Z" id="路径" fill="#FFFFFF"></path>
                <path d="M8.03847656,9.54492187 C6.84140625,9.23378906 5.48964844,9.8296875 4.96933594,10.884375 C4.44023438,11.9601562 4.95175781,13.1537109 6.16113281,13.5439453 C7.41269531,13.9482422 8.88925781,13.3294922 9.40253906,12.1675781 C9.90703125,11.0320312 9.27597656,9.86484375 8.03847656,9.54492187 L8.03847656,9.54492187 Z" id="路径" fill="#010101"></path>
                <path d="M7.12441406,12.290625 C6.88183594,12.6791016 6.35976563,12.8478516 5.96777344,12.6703125 C5.58105469,12.4945313 5.46679688,12.0427734 5.71113281,11.6648438 C5.95195313,11.2886719 6.4546875,11.1199219 6.84316406,11.2833984 C7.23691406,11.4503906 7.36347656,11.8986328 7.12441406,12.290625 L7.12441406,12.290625 Z" id="路径" fill="#FFFFFF"></path>
                <path d="M7.92421875,11.2623047 C7.83632812,11.4134766 7.64121094,11.4855469 7.49003906,11.4222656 C7.340625,11.3607422 7.29316406,11.1919922 7.37753906,11.0443359 C7.46542969,10.8966797 7.65175781,10.8263672 7.80117187,10.884375 C7.95410156,10.940625 8.00859375,11.1111328 7.92421875,11.2623047 L7.92421875,11.2623047 Z" id="路径" fill="#FFFFFF"></path>
                <path d="M13.8041016,7.79589844 C14.0677734,7.88027344 14.3490234,7.73613281 14.4351563,7.47421875 C14.6425781,6.83085937 14.5125,6.09609375 14.0273438,5.55820312 C13.5421875,5.0203125 12.825,4.81464844 12.1640625,4.95527344 C11.8933594,5.01328125 11.7210938,5.27871094 11.7791016,5.54941406 C11.8371094,5.81835937 12.1025391,5.99238281 12.3732422,5.93261719 C12.6966797,5.8640625 13.0464844,5.96425781 13.2855469,6.22617187 C13.5228516,6.48984375 13.5878906,6.8484375 13.4841797,7.16308594 C13.3980469,7.42851562 13.5404297,7.70976562 13.8041016,7.79589844 L13.8041016,7.79589844 Z" id="路径" fill="#FF9500"></path>
                <path d="M15.5583984,4.17480469 C14.5617187,3.06914063 13.0904297,2.64726563 11.7316406,2.93554688 C11.4169922,3.00234375 11.2166016,3.31171875 11.2851562,3.62636719 C11.3519531,3.94101563 11.6613281,4.14140625 11.9759766,4.07460938 C12.9427734,3.86894531 13.9869141,4.16953125 14.6970703,4.95527344 C15.4054687,5.74101563 15.5970703,6.81328125 15.2947266,7.75195313 C15.1962891,8.0578125 15.3632812,8.38476563 15.6691406,8.48496094 C15.975,8.58339844 16.3019531,8.41640625 16.4003906,8.11230469 L16.4003906,8.11054688 C16.8240234,6.78515625 16.5568359,5.27871094 15.5583984,4.17480469 L15.5583984,4.17480469 Z" id="路径" fill="#FF8D18"></path>
            </g>
        </g>
    </g>
</svg>