<?xml version="1.0" encoding="UTF-8"?>
<svg width="14px" height="14px" viewBox="0 0 14 14" version="1.1" xmlns="http://www.w3.org/2000/svg" xmlns:xlink="http://www.w3.org/1999/xlink">
    <!-- Generator: Sketch 60 (88103) - https://sketch.com -->
    <title>link备份</title>
    <desc>Created with Sketch.</desc>
    <g id="页面-1" stroke="none" stroke-width="1" fill="none" fill-rule="evenodd">
        <g id="图标" transform="translate(-279.000000, -339.000000)" fill-rule="nonzero">
            <g id="编组-2" transform="translate(39.000000, 213.000000)">
                <g id="link备份" transform="translate(238.000000, 124.000000)">
                    <rect id="矩形" fill="#000000" opacity="0" x="0" y="0" width="18" height="18"></rect>
                    <path d="M10.0898437,11.6964844 C10.0353516,11.6419922 9.94570312,11.6419922 9.89121094,11.6964844 L7.84863281,13.7390625 C6.90292969,14.6847656 5.30683594,14.7849609 4.26269531,13.7390625 C3.21679687,12.6931641 3.31699219,11.0988281 4.26269531,10.153125 L6.30527344,8.11054688 C6.35976562,8.05605469 6.35976562,7.96640625 6.30527344,7.91191406 L5.60566406,7.21230469 C5.55117187,7.1578125 5.46152344,7.1578125 5.40703125,7.21230469 L3.36445312,9.25488281 C1.87734375,10.7419922 1.87734375,13.1484375 3.36445312,14.6337891 C4.8515625,16.1191406 7.25800781,16.1208984 8.74335937,14.6337891 L10.7859375,12.5912109 C10.8404297,12.5367187 10.8404297,12.4470703 10.7859375,12.3925781 L10.0898437,11.6964844 Z M14.6355469,3.36445312 C13.1484375,1.87734375 10.7419922,1.87734375 9.25664063,3.36445312 L7.21230469,5.40703125 C7.1578125,5.46152344 7.1578125,5.55117187 7.21230469,5.60566406 L7.91015625,6.30351562 C7.96464844,6.35800781 8.05429688,6.35800781 8.10878906,6.30351562 L10.1513672,4.2609375 C11.0970703,3.31523437 12.6931641,3.21503906 13.7373047,4.2609375 C14.7832031,5.30683594 14.6830078,6.90117187 13.7373047,7.846875 L11.6947266,9.88945312 C11.6402344,9.94394531 11.6402344,10.0335937 11.6947266,10.0880859 L12.3943359,10.7876953 C12.4488281,10.8421875 12.5384766,10.8421875 12.5929687,10.7876953 L14.6355469,8.74511719 C16.1208984,7.25800781 16.1208984,4.8515625 14.6355469,3.36445312 L14.6355469,3.36445312 Z M10.7244141,6.54433594 C10.6699219,6.48984375 10.5802734,6.48984375 10.5257813,6.54433594 L6.54433594,10.5240234 C6.48984375,10.5785156 6.48984375,10.6681641 6.54433594,10.7226562 L7.24042969,11.41875 C7.29492188,11.4732422 7.38457031,11.4732422 7.4390625,11.41875 L11.41875,7.4390625 C11.4732422,7.38457031 11.4732422,7.29492188 11.41875,7.24042969 L10.7244141,6.54433594 Z" id="形状" fill="#3285F1"></path>
                </g>
            </g>
        </g>
    </g>
</svg>