<?xml version="1.0" encoding="UTF-8"?>
<svg width="14px" height="14px" viewBox="0 0 14 14" version="1.1" xmlns="http://www.w3.org/2000/svg" xmlns:xlink="http://www.w3.org/1999/xlink">
    <!-- Generator: Sketch 60 (88103) - https://sketch.com -->
    <title>pushpin备份 2</title>
    <desc>Created with Sketch.</desc>
    <g id="页面-1" stroke="none" stroke-width="1" fill="none" fill-rule="evenodd">
        <g id="图标" transform="translate(-405.000000, -297.000000)" fill-rule="nonzero">
            <g id="编组-2" transform="translate(39.000000, 213.000000)">
                <g id="pushpin备份-2" transform="translate(364.000000, 82.000000)">
                    <rect id="矩形" fill="#000000" opacity="0" x="0" y="0" width="18" height="18"></rect>
                    <path d="M15.4388672,6.89238281 L11.1076172,2.56113281 C10.9933594,2.446875 10.8439453,2.390625 10.6945313,2.390625 C10.5451172,2.390625 10.3957031,2.446875 10.2814453,2.56113281 L7.44960938,5.39472656 C7.23515625,5.37011719 7.01894531,5.35957031 6.80273438,5.35957031 C5.51601563,5.35957031 4.22929688,5.78320312 3.17285156,6.63046875 C2.90214844,6.84667969 2.87929688,7.25273437 3.12539063,7.49882813 L6.31933594,10.6927734 L2.53300781,14.4755859 C2.48730469,14.5212891 2.45742188,14.5828125 2.45214844,14.6478516 L2.39238281,15.3017578 C2.3765625,15.4669922 2.50839844,15.6076172 2.671875,15.6076172 C2.68066406,15.6076172 2.68945313,15.6076172 2.69824219,15.6058594 L3.35214844,15.5460938 C3.4171875,15.5408203 3.47871094,15.5109375 3.52441406,15.4652344 L7.31074219,11.6789063 L10.5046875,14.8728516 C10.6189453,14.9871094 10.7683594,15.0433594 10.9177734,15.0433594 C11.0882813,15.0433594 11.2570313,14.9695312 11.3730469,14.8253906 C12.3626953,13.5896484 12.7740234,12.0427734 12.6070313,10.546875 L15.4388672,7.71503906 C15.665625,7.49003906 15.665625,7.12089844 15.4388672,6.89238281 Z M11.7105469,9.65566406 L11.2798828,10.0863281 L11.3466797,10.6910156 C11.4117188,11.2833984 11.3642578,11.8722656 11.2025391,12.4435547 C11.1076172,12.7775391 10.9775391,13.0957031 10.8123047,13.3962891 L4.60546875,7.1859375 C4.83222656,7.06113281 5.06777344,6.95566406 5.31386719,6.87128906 C5.79199219,6.70605469 6.29296875,6.6234375 6.80273438,6.6234375 C6.97148438,6.6234375 7.14199219,6.63222656 7.31074219,6.6515625 L7.91542969,6.71835938 L8.34609375,6.28769531 L10.6962891,3.9375 L14.0625,7.30371094 L11.7105469,9.65566406 Z" id="形状" fill="#B4B4B4"></path>
                </g>
            </g>
        </g>
    </g>
</svg>