<?xml version="1.0" encoding="UTF-8"?>
<svg width="8px" height="14px" viewBox="0 0 8 14" version="1.1" xmlns="http://www.w3.org/2000/svg" xmlns:xlink="http://www.w3.org/1999/xlink">
    <!-- Generator: Sketch 60 (88103) - https://sketch.com -->
    <title>展开</title>
    <desc>Created with Sketch.</desc>
    <g id="页面-1" stroke="none" stroke-width="1" fill="none" fill-rule="evenodd">
        <g id="图标" transform="translate(-980.000000, -207.000000)" fill-rule="nonzero">
            <g id="展开" transform="translate(976.000000, 206.000000)">
                <rect id="矩形" fill="#000000" opacity="0" x="0" y="0" width="16" height="16"></rect>
                <path d="M5.544,12.5893301 C5.09615402,12.5882542 4.6918055,12.8571996 4.51967399,13.270646 C4.34754248,13.6840924 4.44156482,14.1605262 4.75785844,14.4775838 C5.07415206,14.7946414 5.55035763,14.8898129 5.9642181,14.7186793 C6.37807858,14.5475458 6.648,14.1438473 6.648,13.696 C6.648,13.0858448 6.15415347,12.5908036 5.544,12.5893301 L5.544,12.5893301 Z M5.544,7.06666344 C5.09591161,7.06558823 4.69139477,7.33482284 4.51942022,7.74859708 C4.34744567,8.16237133 4.44195777,8.63901439 4.75880503,8.95586165 C5.07565228,9.27270891 5.55229535,9.367221 5.96606959,9.19524645 C6.37984383,9.0232719 6.64907844,8.61875506 6.64800323,8.17066667 C6.64653401,7.56155257 6.1531141,7.06813266 5.544,7.06666344 Z M5.544,1.544 C4.93427764,1.544 4.44,2.03827764 4.44,2.648 C4.44,3.25772236 4.93427764,3.752 5.544,3.752 C6.15372236,3.752 6.648,3.25772236 6.648,2.648 C6.648,2.03827764 6.15372236,1.544 5.544,1.544 L5.544,1.544 Z M9.96266667,12.5893301 C9.5148207,12.5882542 9.11047217,12.8571996 8.93834066,13.270646 C8.76620915,13.6840924 8.8602315,14.1605262 9.17652511,14.4775838 C9.49281873,14.7946414 9.9690243,14.8898129 10.3828848,14.7186793 C10.7967452,14.5475458 11.0666667,14.1438473 11.0666667,13.696 C11.0666667,13.0858448 10.5728201,12.5908036 9.96266667,12.5893301 L9.96266667,12.5893301 Z M9.96266667,7.06666344 C9.51457828,7.06558823 9.11006144,7.33482284 8.93808689,7.74859708 C8.76611234,8.16237133 8.86062444,8.63901439 9.1774717,8.95586165 C9.49431896,9.27270891 9.97096202,9.367221 10.3847363,9.19524645 C10.7985105,9.0232719 11.0677451,8.61875506 11.0666699,8.17066667 C11.0652007,7.56155257 10.5717808,7.06813266 9.96266667,7.06666344 L9.96266667,7.06666344 Z M9.96266667,1.544 C9.35294431,1.544 8.85866667,2.03827764 8.85866667,2.648 C8.85866667,3.25772236 9.35294431,3.752 9.96266667,3.752 C10.572389,3.752 11.0666667,3.25772236 11.0666667,2.648 C11.0666667,2.03827764 10.572389,1.544 9.96266667,1.544 L9.96266667,1.544 Z" id="形状" fill="#666666"></path>
            </g>
        </g>
    </g>
</svg>