<?xml version="1.0" encoding="UTF-8"?>
<svg width="15px" height="14px" viewBox="0 0 15 14" version="1.1" xmlns="http://www.w3.org/2000/svg" xmlns:xlink="http://www.w3.org/1999/xlink">
    <!-- Generator: Sketch 60 (88103) - https://sketch.com -->
    <title>新闻</title>
    <desc>Created with Sketch.</desc>
    <g id="页面-1" stroke="none" stroke-width="1" fill="none" fill-rule="evenodd">
        <g id="图标" transform="translate(-143.000000, -162.000000)" fill-rule="nonzero">
            <g id="新闻" transform="translate(142.000000, 161.000000)">
                <rect id="矩形" fill="#000000" opacity="0" x="0" y="0" width="16" height="16"></rect>
                <path d="M14.5,3.5 L13.6,3.5 L13.6,13.6 L9.4,13.6 C9.4,14.2 9.8,14.7 10.3,14.7 L14.5,14.7 C15,14.7 15.4,14.2 15.4,13.6 L15.4,4.6 C15.4,4 15,3.5 14.5,3.5 Z M12,1.2 L2.6,1.2 C2.1,1.2 1.7,1.7 1.7,2.3 L1.7,13.6 C1.7,14.2 2.1,14.7 2.6,14.7 L12,14.7 C12.5,14.7 12.9,14.2 12.9,13.6 L12.9,2.4 C12.8,1.7 12.4,1.2 12,1.2 Z M3.5,4.1 L6.9,4.1 L6.9,7.5 L3.5,7.5 L3.5,4.1 Z M10.3,11.9 L3.5,11.9 L3.5,10.8 L10.3,10.8 L10.3,11.9 Z M10.3,9.7 L3.5,9.7 L3.5,8.6 L10.3,8.6 L10.3,9.7 Z M10.3,7.4 L7.7,7.4 L7.7,6.3 L10.2,6.3 L10.3,7.4 L10.3,7.4 Z M10.3,5.2 L7.7,5.2 L7.7,4.1 L10.2,4.1 L10.3,5.2 L10.3,5.2 Z" id="形状" fill="#F07B3B"></path>
            </g>
        </g>
    </g>
</svg>