<?xml version="1.0" encoding="UTF-8"?>
<svg width="16px" height="16px" viewBox="0 0 16 16" version="1.1" xmlns="http://www.w3.org/2000/svg" xmlns:xlink="http://www.w3.org/1999/xlink">
    <!-- Generator: Sketch 60 (88103) - https://sketch.com -->
    <title>select备份</title>
    <desc>Created with Sketch.</desc>
    <g id="页面-1" stroke="none" stroke-width="1" fill="none" fill-rule="evenodd">
        <g id="图标" transform="translate(-278.000000, -254.000000)" fill-rule="nonzero">
            <g id="编组-2" transform="translate(39.000000, 213.000000)">
                <g id="select备份" transform="translate(247.000000, 49.000000) scale(-1, 1) translate(-247.000000, -49.000000) translate(238.000000, 40.000000)">
                    <rect id="矩形" fill="#000000" opacity="0" x="0" y="0" width="18" height="18"></rect>
                    <path d="M15.46875,1.96875 L2.53125,1.96875 C2.22011719,1.96875 1.96875,2.22011719 1.96875,2.53125 L1.96875,15.46875 C1.96875,15.7798828 2.22011719,16.03125 2.53125,16.03125 L8.859375,16.03125 C8.93671875,16.03125 9,15.9679687 9,15.890625 L9,14.90625 C9,14.8289062 8.93671875,14.765625 8.859375,14.765625 L3.234375,14.765625 L3.234375,3.234375 L14.765625,3.234375 L14.765625,8.859375 C14.765625,8.93671875 14.8289062,9 14.90625,9 L15.890625,9 C15.9679687,9 16.03125,8.93671875 16.03125,8.859375 L16.03125,2.53125 C16.03125,2.22011719 15.7798828,1.96875 15.46875,1.96875 Z M11.4837891,10.5363281 L12.4013672,9.61875 C12.4839844,9.53613281 12.4347656,9.39375 12.31875,9.3796875 L9.16523438,9.01054687 C9.07558594,9 8.99824219,9.07558594 9.00878906,9.16699219 L9.37792969,12.3205078 C9.39199219,12.4365234 9.534375,12.4857422 9.61699219,12.403125 L10.5380859,11.4820312 L15.0416016,15.9855469 C15.0960938,16.0400391 15.1857422,16.0400391 15.2402344,15.9855469 L15.9855469,15.2402344 C16.0400391,15.1857422 16.0400391,15.0960937 15.9855469,15.0416016 L11.4837891,10.5363281 Z" id="形状" fill="#3285F1"></path>
                </g>
            </g>
        </g>
    </g>
</svg>