<?xml version="1.0" encoding="UTF-8"?>
<svg width="14px" height="14px" viewBox="0 0 14 14" version="1.1" xmlns="http://www.w3.org/2000/svg" xmlns:xlink="http://www.w3.org/1999/xlink">
    <!-- Generator: Sketch 60 (88103) - https://sketch.com -->
    <title>stop备份</title>
    <desc>Created with Sketch.</desc>
    <g id="页面-1" stroke="none" stroke-width="1" fill="none" fill-rule="evenodd">
        <g id="图标" transform="translate(-150.000000, -626.000000)" fill-rule="nonzero">
            <g id="编组-2" transform="translate(139.000000, 617.000000)">
                <g id="stop备份" transform="translate(10.000000, 8.000000)">
                    <rect id="矩形" fill="#000000" opacity="0" x="0" y="0" width="16" height="16"></rect>
                    <path d="M8,1 C4.134375,1 1,4.134375 1,8 C1,11.865625 4.134375,15 8,15 C11.865625,15 15,11.865625 15,8 C15,4.134375 11.865625,1 8,1 Z M8,13.8125 C4.790625,13.8125 2.1875,11.209375 2.1875,8 C2.1875,6.609375 2.6765625,5.33125 3.4921875,4.33125 L11.66875,12.5078125 C10.66875,13.3234375 9.390625,13.8125 8,13.8125 Z M12.5078125,11.66875 L4.33125,3.4921875 C5.33125,2.6765625 6.609375,2.1875 8,2.1875 C11.209375,2.1875 13.8125,4.790625 13.8125,8 C13.8125,9.390625 13.3234375,10.66875 12.5078125,11.66875 Z" id="形状" fill="#FFFFFF"></path>
                </g>
            </g>
        </g>
    </g>
</svg>