<?xml version="1.0" encoding="UTF-8"?>
<svg width="14px" height="14px" viewBox="0 0 14 14" version="1.1" xmlns="http://www.w3.org/2000/svg" xmlns:xlink="http://www.w3.org/1999/xlink">
    <!-- Generator: Sketch 60 (88103) - https://sketch.com -->
    <title>zoom out</title>
    <desc>Created with Sketch.</desc>
    <g id="页面-1" stroke="none" stroke-width="1" fill="none" fill-rule="evenodd">
        <g id="图标" transform="translate(-406.000000, -444.000000)" fill-rule="nonzero">
            <g id="zoom-out" transform="translate(405.000000, 443.000000)">
                <rect id="矩形" fill="#000000" opacity="0" x="0" y="0" width="16" height="16"></rect>
                <path d="M14.390625,13.546875 L12.109375,11.265625 C14.0171875,8.9390625 13.884375,5.4921875 11.703125,3.3125 C9.390625,0.9984375 5.634375,0.9984375 3.3125,3.3125 C0.9984375,5.634375 0.9984375,9.390625 3.3125,11.703125 C5.4921875,13.884375 8.9390625,14.0171875 11.265625,12.109375 L13.546875,14.390625 C13.596875,14.434375 13.6765625,14.434375 13.71875,14.390625 L14.390625,13.71875 C14.434375,13.6765625 14.434375,13.596875 14.390625,13.546875 Z M10.875,10.875 C9.01875,12.7296875 6.0125,12.7296875 4.15625,10.875 C2.3015625,9.01875 2.3015625,6.0125 4.15625,4.15625 C6.0125,2.3015625 9.01875,2.3015625 10.875,4.15625 C12.7296875,6.0125 12.7296875,9.01875 10.875,10.875 Z" id="形状" fill="#666666"></path>
            </g>
        </g>
    </g>
</svg>