<?xml version="1.0" encoding="UTF-8"?>
<svg width="16px" height="16px" viewBox="0 0 16 16" version="1.1" xmlns="http://www.w3.org/2000/svg" xmlns:xlink="http://www.w3.org/1999/xlink">
    <!-- Generator: Sketch 60 (88103) - https://sketch.com -->
    <title>编组</title>
    <desc>Created with Sketch.</desc>
    <g id="页面-1" stroke="none" stroke-width="1" fill="none" fill-rule="evenodd">
        <g id="图标" transform="translate(-62.000000, -161.000000)">
            <g id="编组" transform="translate(62.000000, 161.000000)">
                <path d="M16,13.6 C16,14.9255467 14.9254933,16 13.6,16 L2.4,16 C1.07445333,16 0,14.9255467 0,13.6 L0,2.4 C0,1.07450667 1.07450667,0 2.4,0 L13.6,0 C14.9254933,0 16,1.07450667 16,2.4 L16,13.6 Z" id="Fill-1" fill="#2DC100"></path>
                <path d="M7.92179443,5.46886199 C7.61411906,5.47468476 7.35413491,5.7440144 7.35959417,6.05135086 C7.36520793,6.36990939 7.62024784,6.61912401 7.93662713,6.61520687 C8.25383044,6.61128974 8.49439818,6.3594284 8.49146255,6.03414722 C8.48878442,5.71484761 8.23487756,5.46298628 7.92179443,5.46886199 M4.92739304,6.06019089 C4.93887808,5.75407192 4.68079952,5.47828429 4.3742572,5.46907372 C4.06040154,5.45959849 3.80227148,5.70611345 3.79310405,6.02398384 C3.78383362,6.3461419 4.02357732,6.60430241 4.33969908,6.61256016 C4.65309123,6.62071204 4.915805,6.37387946 4.92739304,6.06019089 M10.6666667,6.58169947 C9.41963891,6.64866134 8.33525575,7.037199 7.45487362,7.91500825 C6.56537556,8.80186927 6.15933059,9.88861015 6.27031828,11.2357877 C5.78289951,11.1737487 5.33894877,11.1054635 4.89247441,11.0668215 C4.7382762,11.053482 4.55528816,11.0724325 4.42467805,11.1482344 C3.9911308,11.3996723 3.57550638,11.6835059 3.08288587,12 C3.17327259,11.5798076 3.23177932,11.2118614 3.33535066,10.8579428 C3.41152272,10.5978237 3.37624357,10.4530484 3.14309218,10.2836587 C1.64612325,9.19739425 1.01511577,7.57172941 1.48734133,5.89805317 C1.92423624,4.34972532 2.99713436,3.41072403 4.45496147,2.92124069 C6.44475693,2.25321001 8.6809399,2.93463307 9.89088592,4.55833934 C10.3278838,5.14485122 10.5958509,5.803142 10.6666667,6.58169947" id="Fill-3" fill="#FFFFFF"></path>
                <path d="M11.772418,8.89096735 C11.528652,8.88916458 11.3214819,9.10758213 11.3115994,9.37715345 C11.3010479,9.66537223 11.505696,9.90209923 11.7663959,9.90283489 C12.0184486,9.90378933 12.2176408,9.6950617 12.2268027,9.42047641 C12.2366336,9.13158159 12.0317796,8.89293914 11.772418,8.89096735 M8.87656496,9.90626843 C9.12779418,9.90654984 9.334707,9.69134347 9.34417764,9.41980037 C9.35426593,9.13220129 9.14292661,8.89102369 8.87991056,8.8898355 C8.61941659,8.88854487 8.40128312,9.13315902 8.41034199,9.41636383 C8.41888615,9.68706188 8.62718868,9.90598647 8.87656496,9.90626843 M13.3686835,14.6666667 C12.9740565,14.474333 12.6120105,14.1857762 12.2265968,14.1417209 C11.8426757,14.0978909 11.4390927,14.3403079 11.0374657,14.3852083 C9.81390063,14.5222193 8.71777738,14.1489883 7.81400071,13.2341923 C6.09497723,11.4938939 6.3406476,8.82561673 8.32937834,7.39945206 C10.0969388,6.131988 12.6892168,6.55451358 13.9353776,8.31317771 C15.0229052,9.84779061 14.8951545,11.8849836 13.5675154,13.1741373 C13.1832855,13.5472556 13.0450862,13.8543472 13.2915801,14.3461669 C13.3370289,14.4369818 13.3422789,14.5519651 13.3686835,14.6666667" id="Fill-5" fill="#FFFFFF"></path>
            </g>
        </g>
    </g>
</svg>