<?xml version="1.0" encoding="UTF-8"?>
<svg width="14px" height="12px" viewBox="0 0 14 12" version="1.1" xmlns="http://www.w3.org/2000/svg" xmlns:xlink="http://www.w3.org/1999/xlink">
    <!-- Generator: Sketch 60 (88103) - https://sketch.com -->
    <title>laptop</title>
    <desc>Created with Sketch.</desc>
    <g id="页面-1" stroke="none" stroke-width="1" fill="none" fill-rule="evenodd">
        <g id="游云南_工单推送" transform="translate(-25.000000, -113.000000)">
            <g id="laptop" transform="translate(24.000000, 111.000000)">
                <rect id="矩形" fill="#000000" fill-rule="nonzero" opacity="0" x="0" y="0" width="16" height="16"></rect>
                <path d="M14.9515625,13.2046875 L14.00625,9.875 L14.00625,2.625 C14.00625,2.3484375 13.7828125,2.125 13.50625,2.125 L2.50625,2.125 C2.2296875,2.125 2.00625,2.3484375 2.00625,2.625 L2.00625,9.875 L1.0609375,13.2046875 C0.94375,13.53125 1.184375,13.875 1.53125,13.875 L14.48125,13.875 C14.828125,13.875 15.06875,13.53125 14.9515625,13.2046875 Z M3.13125,3.25 L12.88125,3.25 L12.88125,9.421875 L3.13125,9.421875 L3.13125,3.25 Z M6.6984375,12.75 L6.825,12.171875 L9.1734375,12.171875 L9.3,12.75 L6.6984375,12.75 Z M10.1984375,12.75 L9.9,11.3953125 C9.8875,11.3375 9.8359375,11.296875 9.778125,11.296875 L6.221875,11.296875 C6.1625,11.296875 6.1125,11.3375 6.1,11.3953125 L5.8015625,12.75 L2.359375,12.75 L3.0203125,10.421875 L12.9921875,10.421875 L13.653125,12.75 L10.1984375,12.75 Z" id="形状" fill="#DDDDDD" fill-rule="nonzero"></path>
                <polyline id="路径-2" stroke="#DDDDDD" points="4 8 6 6 8 8 12 4"></polyline>
            </g>
        </g>
    </g>
</svg>